<svg viewBox="0 0 200 226" fill="none" xmlns="http://www.w3.org/2000/svg">
<path fill-rule="evenodd" clip-rule="evenodd" d="M76.5132 76.2837V59.0639C76.5132 55.9258 76.6757 54.8793 77.1588 53.2694C78.45 48.8441 82.8096 45.5454 87.9744 45.5454C93.1392 45.5454 97.4974 48.9243 98.7886 53.2694C99.2732 54.8793 99.4356 55.9258 99.4356 59.0639V85.6176C99.4356 87.2275 99.4356 88.8359 99.1121 90.2852C98.225 94.3078 94.5929 97.9304 90.5568 98.8149C89.1046 99.136 87.4898 99.136 85.8751 99.136H59.2415C56.094 99.136 55.0444 98.9754 53.4297 98.4923C49.0715 97.205 45.6824 92.8599 45.6824 87.7106C45.6824 82.5598 49.0715 78.2147 53.4297 76.9274C55.0444 76.4443 56.094 76.2837 59.2415 76.2837H76.5132ZM171.428 196.665H28.5718V71.2147C28.5718 69.6048 29.1369 68.2372 30.2671 67.1104L67.3123 30.1749C68.4424 29.0495 69.8142 28.4861 71.4289 28.4861H171.428V196.665ZM187.652 0.160555C186.925 0.0802763 185.956 0 184.1 0H67.6344C66.3446 0 65.0534 0.0802763 64.1648 0.160555C58.8375 0.643663 54.0753 3.13805 50.2822 6.91977L6.94058 50.1314C3.14893 53.9145 0.645607 58.661 0.162483 63.9724C0.0805252 64.8569 0 66.1442 0 67.4315V209.297C0 211.148 0.0805252 212.114 0.162483 212.838C0.806647 218.874 6.29498 224.344 12.3484 224.988C13.076 225.069 14.0436 225.15 15.8999 225.15H184.1C185.956 225.15 186.925 225.069 187.652 224.988C193.705 224.344 199.193 218.874 199.839 212.838C199.918 212.114 200 211.148 200 209.297V15.8522C200 14.0015 199.918 13.0353 199.839 12.3114C199.193 6.2761 193.705 0.804221 187.652 0.160555Z" fill="#238f76"/>
</svg>
