<svg width="357" height="75" viewBox="0 0 357 75" fill="none" xmlns="http://www.w3.org/2000/svg">
<path fill-rule="evenodd" clip-rule="evenodd" d="M281.25 75H332.812C345.757 75 356.25 64.5067 356.25 51.5625C356.25 46.2862 354.507 41.4172 351.564 37.5C354.507 33.5828 356.25 28.7138 356.25 23.4375C356.25 10.4933 345.757 0 332.812 0H281.25V75ZM332.812 46.875C335.401 46.875 337.5 48.9737 337.5 51.5625C337.5 54.1513 335.401 56.25 332.812 56.25H300V46.875H332.812ZM300 28.125H332.812C335.401 28.125 337.5 26.0263 337.5 23.4375C337.5 20.8487 335.401 18.75 332.812 18.75H300V28.125Z" fill="#222222"/>
<path d="M187.5 0V18.75H215.625V75H234.375V18.75H262.5V0H187.5Z" fill="#222222"/>
<path d="M93.75 75H168.75V56.25H112.5V46.875H168.75V28.125H112.5V18.75H168.75V0H93.75V75Z" fill="#222222"/>
<path d="M18.75 0H0V75H75V56.25H18.75V0Z" fill="#222222"/>
</svg>
